<?xml version="1.0" encoding="UTF-8"?>
<!DOCTYPE svg PUBLIC "-//W3C//DTD SVG 1.1//EN" "http://www.w3.org/Graphics/SVG/1.1/DTD/svg11.dtd">
<!-- Creator: CorelDRAW -->
<svg xmlns="http://www.w3.org/2000/svg" xml:space="preserve" width="2500px" height="3000px" version="1.1" style="shape-rendering:geometricPrecision; text-rendering:geometricPrecision; image-rendering:optimizeQuality; fill-rule:evenodd; clip-rule:evenodd"
viewBox="0 0 2500 3000"
 xmlns:xlink="http://www.w3.org/1999/xlink"
 xmlns:xodm="http://www.corel.com/coreldraw/odm/2003">
 <defs>
  <style type="text/css">
   <![CDATA[
    .fil0 {fill:#DE2C2C}
    .fil3 {fill:#DE3939}
    .fil18 {fill:#E01E1E}
    .fil8 {fill:#E02324}
    .fil2 {fill:#E02525}
    .fil13 {fill:#E02A2A}
    .fil20 {fill:#E02D2D}
    .fil17 {fill:#E03131}
    .fil1 {fill:#E33B3B}
    .fil5 {fill:#E52425}
    .fil21 {fill:#E72E2E}
    .fil6 {fill:#E73C3B}
    .fil9 {fill:#E93131}
    .fil12 {fill:#EA3535}
    .fil4 {fill:#EA4745}
    .fil16 {fill:#EA4D4B}
    .fil11 {fill:#EA5E5B}
    .fil19 {fill:#EC5553}
    .fil10 {fill:#EF4140}
    .fil22 {fill:#EF5754}
    .fil15 {fill:#EF6C69}
    .fil14 {fill:#F03333}
    .fil7 {fill:#F27571}
   ]]>
  </style>
 </defs>
 <g id="Layer_x0020_1">
  <metadata id="CorelCorpID_0Corel-Layer"/>
  <path class="fil0" d="M708.48 858.95c552.02,0 999.52,455.13 999.52,1016.55 0,561.42 -447.5,1016.55 -999.52,1016.55 -173.35,0 -336.37,-44.9 -478.48,-123.86l0 -1785.38c142.11,-78.96 305.13,-123.86 478.48,-123.86z"/>
  <path class="fil1" d="M708.48 992c478.54,0 866.47,395.56 866.47,883.5 0,487.94 -387.93,883.5 -866.47,883.5 -176.89,0 -341.37,-54.09 -478.48,-146.87l0 -1473.26c137.11,-92.78 301.59,-146.87 478.48,-146.87z"/>
  <rect class="fil2" x="117" y="2482" width="400" height="400"/>
  <path class="fil3" d="M117 2482l400 400 0 -400 -400 0z"/>
  <rect class="fil4" x="116" y="2076" width="400" height="400"/>
  <path class="fil5" d="M116 2076l400 400 0 -400 -400 0z"/>
  <rect class="fil6" x="115" y="1673" width="400" height="400"/>
  <path class="fil7" d="M115 1673l400 400 0 -400 -400 0z"/>
  <rect class="fil6" x="114" y="1267" width="400" height="400"/>
  <path class="fil8" d="M114 1267l400 400 0 -400 -400 0z"/>
  <rect class="fil9" x="115" y="865" width="400" height="400"/>
  <path class="fil10" d="M115 865l400 400 0 -400 -400 0z"/>
  <rect class="fil11" x="114" y="459" width="400" height="400"/>
  <path class="fil12" d="M114 459l400 400 0 -400 -400 0z"/>
  <rect class="fil13" x="520" y="2480" width="400" height="400"/>
  <path class="fil14" d="M520 2480l400 400 0 -400 -400 0z"/>
  <rect class="fil6" x="519" y="2074" width="400" height="400"/>
  <path class="fil15" d="M519 2074l400 400 0 -400 -400 0z"/>
  <rect class="fil16" x="518" y="1671" width="400" height="400"/>
  <path class="fil17" d="M518 1671l400 400 0 -400 -400 0z"/>
  <rect class="fil6" x="517" y="1265" width="400" height="400"/>
  <path class="fil18" d="M517 1265l400 400 0 -400 -400 0z"/>
  <rect class="fil19" x="518" y="863" width="400" height="400"/>
  <path class="fil20" d="M518 863l400 400 0 -400 -400 0z"/>
  <rect class="fil21" x="924" y="2479" width="400" height="400"/>
  <path class="fil4" d="M924 2479l400 400 0 -400 -400 0z"/>
  <rect class="fil6" x="923" y="2073" width="400" height="400"/>
  <path class="fil7" d="M923 2073l400 400 0 -400 -400 0z"/>
  <rect class="fil6" x="922" y="1670" width="400" height="400"/>
  <path class="fil18" d="M922 1670l400 400 0 -400 -400 0z"/>
  <rect class="fil6" x="1327" y="2479" width="400" height="400"/>
  <path class="fil22" d="M1327 2479l400 400 0 -400 -400 0z"/>
  <rect class="fil6" x="1729" y="2479" width="400" height="400"/>
  <path class="fil5" d="M1729 2479l400 400 0 -400 -400 0z"/>
 </g>
</svg>
